<svg xmlns="http://www.w3.org/2000/svg" xmlns:xlink="http://www.w3.org/1999/xlink" width="463.139" height="268.18" viewBox="0 0 463.139 268.18">
  <defs>
    <filter id="nube_log_in" x="151.539" y="94.234" width="311.6" height="173.946" filterUnits="userSpaceOnUse">
      <feOffset dy="3" input="SourceAlpha"/>
      <feGaussianBlur stdDeviation="3" result="blur"/>
      <feFlood flood-color="#84b5db" flood-opacity="0.769"/>
      <feComposite operator="in" in2="blur"/>
      <feComposite in="SourceGraphic"/>
    </filter>
    <filter id="log_In" x="209.844" y="143.188" width="166" height="96" filterUnits="userSpaceOnUse">
      <feOffset dy="3" input="SourceAlpha"/>
      <feGaussianBlur stdDeviation="3" result="blur-2"/>
      <feFlood flood-color="#fff" flood-opacity="0.22"/>
      <feComposite operator="in" in2="blur-2"/>
      <feComposite in="SourceGraphic"/>
    </filter>
  </defs>
  <path id="nube_welcome" data-name="nube welcome" d="M224.346,57.423C216.462,24.624,181.332,0,139.129,0c-33.507,0-62.608,15.592-77.1,38.409C27.13,41.451,0,65.695,0,95.072c0,31.469,31.188,57.043,69.565,57.043H220.288c32,0,57.97-21.3,57.97-47.536C278.258,79.48,254.49,59.135,224.346,57.423Z" transform="matrix(1, -0.017, 0.017, 1, 0.509, 5.365)" fill="#666771" stroke="#000" stroke-width="1" opacity="0.73"/>
  <g transform="matrix(1, 0, 0, 1, 0, 0)" filter="url(#nube_log_in)">
    <path id="nube_log_in-2" data-name="nube log in" d="M235.909,62.492C227.618,29.082,190.678,4,146.3,4,111.066,4,80.465,19.882,65.225,43.124,28.528,46.223,0,70.917,0,100.841c0,32.054,32.8,58.1,73.15,58.1H231.642c33.649,0,60.958-21.692,60.958-48.421C292.6,84.959,267.607,64.235,235.909,62.492Z" transform="translate(161.04 96.73)" fill="#29abe2" stroke="#069bff" stroke-width="1"/>
  </g>
  <g transform="matrix(1, 0, 0, 1, 0, 0)" filter="url(#log_In)">
    <text id="log_In-2" data-name="log In" transform="translate(292.84 212.19)" fill="#fff" font-size="58" font-family="LeelawadeeUI, Leelawadee UI"><tspan x="-73.166" y="0">log In</tspan></text>
  </g>
  <text id="Bienvenidos" transform="translate(130.832 105.739)" fill="#fff" font-size="45" font-family="LeelawadeeUI-Semilight, Leelawadee UI" font-weight="300"><tspan x="-115.95" y="0">Bienvenidos</tspan></text>
</svg>
