<svg xmlns="http://www.w3.org/2000/svg" xmlns:xlink="http://www.w3.org/1999/xlink" width="282.026" height="58.231" viewBox="0 0 282.026 58.231">
  <defs>
    <filter id="nube" x="0" y="1.207" width="73.899" height="57.024" filterUnits="userSpaceOnUse">
      <feOffset dy="3" input="SourceAlpha"/>
      <feGaussianBlur stdDeviation="3" result="blur"/>
      <feFlood flood-color="#84b5db" flood-opacity="0.769"/>
      <feComposite operator="in" in2="blur"/>
      <feComposite in="SourceGraphic"/>
    </filter>
    <filter id="letra" x="21.019" y="0" width="241" height="49" filterUnits="userSpaceOnUse">
      <feOffset input="SourceAlpha"/>
      <feGaussianBlur result="blur-2"/>
      <feFlood flood-opacity="0.451"/>
      <feComposite operator="in" in2="blur-2"/>
      <feComposite in="SourceGraphic"/>
    </filter>
  </defs>
  <g id="Group_3330" data-name="Group 3330" transform="translate(5002.833 471)">
    <g transform="matrix(1, 0, 0, 1, -5002.83, -471)" filter="url(#nube)">
      <path id="nube-2" data-name="nube" d="M45.069,18.732C43.485,10.317,36.428,4,27.95,4a17.383,17.383,0,0,0-15.489,9.854A14.39,14.39,0,0,0,0,28.39c0,8.073,6.265,14.634,13.975,14.634H44.254A11.934,11.934,0,0,0,55.9,30.829,11.916,11.916,0,0,0,45.069,18.732Z" transform="translate(9 3.21)" fill="#29abe2"/>
    </g>
    <g id="logo" transform="translate(-4981.814 -471)">
      <g transform="matrix(1, 0, 0, 1, -21.02, 0)" filter="url(#letra)">
        <text id="letra-2" data-name="letra" transform="translate(21.02 40)" font-size="37" font-family="SegoeUI-Bold, Segoe UI" font-weight="700"><tspan x="0" y="0">Estimate-Teck</tspan></text>
      </g>
    </g>
  </g>
</svg>
